<svg xmlns="http://www.w3.org/2000/svg">
  <!-- Simple stroke icons drawn for this project. Color comes from currentColor. -->
  <symbol id="heart" viewBox="0 0 24 24">
    <path d="M12 20s-7-4.4-7-10a4 4 0 0 1 7-2.6A4 4 0 0 1 19 10c0 5.6-7 10-7 10z"/>
  </symbol>
  <symbol id="echo" viewBox="0 0 24 24">
    <path d="M12 21 4 7a11 11 0 0 1 16 0z"/>
    <path d="M12 21 8 12M12 21l4-9"/>
  </symbol>
  <symbol id="calculator" viewBox="0 0 24 24">
    <rect x="5" y="3" width="14" height="18" rx="2"/>
    <path d="M8 7h8M8 12h2M14 12h2M8 16h2M14 16h2"/>
  </symbol>
  <symbol id="chat" viewBox="0 0 24 24">
    <path d="M4 5h16v11H9l-5 4z"/>
  </symbol>
  <symbol id="plan" viewBox="0 0 24 24">
    <rect x="3" y="6" width="18" height="13" rx="2"/>
    <path d="M3 10h18M7 15h4"/>
  </symbol>
  <symbol id="user" viewBox="0 0 24 24">
    <circle cx="12" cy="8" r="4"/>
    <path d="M4 21a8 8 0 0 1 16 0"/>
  </symbol>
</svg>
